<?xml version="1.0" encoding="UTF-8"?>
<svg id="b" data-name="Layer 2" xmlns="http://www.w3.org/2000/svg" width="56.973" height="56.973" viewBox="0 0 56.973 56.973">
  <g id="c" data-name="Layer 1">
    <path d="M48.51,8.224C31.864,22.733,30.258,22.02,28.487,0,24.915,22.02,22.02,24.915,0,28.487c22.02,1.846,22.794,3.512,8.875,20.661,16.32-14.87,17.887-14.194,19.612,7.826,3.571-22.02,6.466-24.915,28.487-28.487-22.02-1.799-22.755-3.427-8.463-20.262ZM28.487,43.264c-.895-11.423-1.708-11.773-10.173-4.06,7.221-8.896,6.819-9.76-4.603-10.717,11.423-1.853,12.924-3.354,14.777-14.777,.919,11.423,1.752,11.792,10.387,4.266-7.414,8.733-7.032,9.577,4.39,10.511-11.423,1.853-12.924,3.354-14.777,14.777Z"/>
  </g>
</svg>