<?xml version="1.0" encoding="UTF-8"?>
<svg id="b" data-name="Layer 2" xmlns="http://www.w3.org/2000/svg" width="58.389" height="58.389" viewBox="0 0 58.389 58.389">
  <g id="c" data-name="Layer 1">
    <path d="M58.389,29.195c-22.568-1.844-23.321-3.512-8.674-20.766C32.656,23.298,31.011,22.568,29.195,0c-1.941,22.568-3.687,23.402-21.582,9.533C23.222,25.909,22.568,27.476,0,29.195c22.568,1.892,23.361,3.599,9.095,21.174,16.725-15.239,18.332-14.547,20.1,8.021,1.559-22.568,2.992-23.106,18.168-6.341-12.519-18.88-11.541-20.753,11.026-22.854Zm-29.195,13.791c-.835-10.661-1.594-10.988-9.495-3.789,6.739-8.302,6.364-9.109-4.297-10.003,10.661-.812,10.97-1.552,3.596-9.288,8.454,6.551,9.278,6.157,10.195-4.504,.858,10.661,1.635,11.006,9.694,3.982-6.919,8.15-6.564,8.939,4.097,9.81-10.661,.993-11.123,1.877-5.209,10.796-7.169-7.92-7.846-7.666-8.583,2.995Z"/>
  </g>
</svg>