<?xml version="1.0" encoding="utf-8"?>
<!-- Generator: Adobe Illustrator 27.0.0, SVG Export Plug-In . SVG Version: 6.00 Build 0)  -->
<svg version="1.1" id="Layer_1" xmlns="http://www.w3.org/2000/svg" xmlns:xlink="http://www.w3.org/1999/xlink" x="0px" y="0px"
	 viewBox="0 0 2000 3000" style="enable-background:new 0 0 2000 3000;" xml:space="preserve">
<g>
	<rect x="142.8571" width="142.8571" height="142.8571"/>
	<rect x="285.7143" width="142.8571" height="142.8571"/>
	<rect x="428.5714" width="142.8571" height="142.8571"/>
	<rect x="571.4286" width="142.8571" height="142.8571"/>
	<rect x="714.2857" width="142.8571" height="142.8571"/>
	<rect x="1000" width="142.8571" height="142.8571"/>
	<rect x="1285.7142" width="142.8571" height="142.8571"/>
	<rect x="1571.4286" width="142.8571" height="142.8571"/>
	<rect x="1714.2858" width="142.8571" height="142.8571"/>
	<rect x="1857.1428" width="142.8571" height="142.8571"/>
	<rect y="142.8571" width="142.8571" height="142.8571"/>
	<rect x="142.8571" y="142.8571" width="142.8571" height="142.8571"/>
	<rect x="285.7143" y="142.8571" width="142.8571" height="142.8571"/>
	<rect x="428.5714" y="142.8571" width="142.8571" height="142.8571"/>
	<rect x="571.4286" y="142.8571" width="142.8571" height="142.8571"/>
	<rect x="714.2857" y="142.8571" width="142.8571" height="142.8571"/>
	<rect x="857.1429" y="142.8571" width="142.8571" height="142.8571"/>
	<rect x="1000" y="142.8571" width="142.8571" height="142.8571"/>
	<rect x="1142.8572" y="142.8571" width="142.8571" height="142.8571"/>
	<rect x="1285.7142" y="142.8571" width="142.8571" height="142.8571"/>
	<rect x="1428.5714" y="142.8571" width="142.8571" height="142.8571"/>
	<rect x="1571.4286" y="142.8571" width="142.8571" height="142.8571"/>
	<rect x="1714.2858" y="142.8571" width="142.8571" height="142.8571"/>
	<rect x="1857.1428" y="142.8571" width="142.8571" height="142.8571"/>
	<rect y="285.7143" width="142.8571" height="142.8571"/>
	<rect x="142.8571" y="285.7143" width="142.8571" height="142.8571"/>
	<rect x="285.7143" y="285.7143" width="142.8571" height="142.8571"/>
	<rect x="428.5714" y="285.7143" width="142.8571" height="142.8571"/>
	<rect x="571.4286" y="285.7143" width="142.8571" height="142.8571"/>
	<rect x="714.2857" y="285.7143" width="142.8571" height="142.8571"/>
	<rect x="1000" y="285.7143" width="142.8571" height="142.8571"/>
	<rect x="1285.7142" y="285.7143" width="142.8571" height="142.8571"/>
	<rect x="1428.5714" y="285.7143" width="142.8571" height="142.8571"/>
	<rect x="1571.4286" y="285.7143" width="142.8571" height="142.8571"/>
	<rect x="1714.2858" y="285.7143" width="142.8571" height="142.8571"/>
	<rect x="1857.1428" y="285.7143" width="142.8571" height="142.8571"/>
	<rect x="142.8571" y="428.5714" width="142.8571" height="142.8571"/>
	<rect x="285.7143" y="428.5714" width="142.8571" height="142.8571"/>
	<rect x="428.5714" y="428.5714" width="142.8571" height="142.8571"/>
	<rect x="714.2857" y="428.5714" width="142.8571" height="142.8571"/>
	<rect x="1000" y="428.5714" width="142.8571" height="142.8571"/>
	<rect x="1285.7142" y="428.5714" width="142.8571" height="142.8571"/>
	<rect x="1428.5714" y="428.5714" width="142.8571" height="142.8571"/>
	<rect x="1571.4286" y="428.5714" width="142.8571" height="142.8571"/>
	<rect x="1857.1428" y="428.5714" width="142.8571" height="142.8571"/>
	<rect y="571.4286" width="142.8571" height="142.8571"/>
	<rect x="142.8571" y="571.4286" width="142.8571" height="142.8571"/>
	<rect x="285.7143" y="571.4286" width="142.8571" height="142.8571"/>
	<rect x="428.5714" y="571.4286" width="142.8571" height="142.8571"/>
	<rect x="714.2857" y="571.4286" width="142.8571" height="142.8571"/>
	<rect x="1142.8572" y="571.4286" width="142.8571" height="142.8571"/>
	<rect x="1285.7142" y="571.4286" width="142.8571" height="142.8571"/>
	<rect x="1571.4286" y="571.4286" width="142.8571" height="142.8571"/>
	<rect x="1857.1428" y="571.4286" width="142.8571" height="142.8571"/>
	<rect y="714.2857" width="142.8571" height="142.8571"/>
	<rect x="285.7143" y="714.2857" width="142.8571" height="142.8571"/>
	<rect x="857.1429" y="714.2857" width="142.8571" height="142.8571"/>
	<rect x="1285.7142" y="714.2857" width="142.8571" height="142.8571"/>
	<rect x="1571.4286" y="714.2857" width="142.8571" height="142.8571"/>
	<rect x="142.8571" y="857.1429" width="142.8571" height="142.8571"/>
	<rect x="285.7143" y="857.1429" width="142.8571" height="142.8571"/>
	<rect x="428.5714" y="857.1429" width="142.8571" height="142.8571"/>
	<rect x="571.4286" y="857.1429" width="142.8571" height="142.8571"/>
	<rect x="714.2857" y="857.1429" width="142.8571" height="142.8571"/>
	<rect x="1000" y="857.1429" width="142.8571" height="142.8571"/>
	<rect x="1285.7142" y="857.1429" width="142.8571" height="142.8571"/>
	<rect x="1714.2858" y="857.1429" width="142.8571" height="142.8571"/>
	<rect x="1857.1428" y="857.1429" width="142.8571" height="142.8571"/>
	<rect x="285.7143" y="1000" width="142.8571" height="142.8571"/>
	<rect x="571.4286" y="1000" width="142.8571" height="142.8571"/>
	<rect x="1428.5714" y="1000" width="142.8571" height="142.8571"/>
	<rect y="1142.8572" width="142.8571" height="142.8571"/>
	<rect x="285.7143" y="1142.8572" width="142.8571" height="142.8571"/>
	<rect x="428.5714" y="1142.8572" width="142.8571" height="142.8571"/>
	<rect x="1142.8572" y="1142.8572" width="142.8571" height="142.8571"/>
	<rect x="1285.7142" y="1142.8572" width="142.8571" height="142.8571"/>
	<rect x="1571.4286" y="1142.8572" width="142.8571" height="142.8571"/>
	<rect x="1857.1428" y="1142.8572" width="142.8571" height="142.8571"/>
	<rect x="142.8571" y="1285.7142" width="142.8571" height="142.8571"/>
	<rect x="285.7143" y="1285.7142" width="142.8571" height="142.8571"/>
	<rect x="428.5714" y="1285.7142" width="142.8571" height="142.8571"/>
	<rect x="1000" y="1285.7142" width="142.8571" height="142.8571"/>
	<rect x="1285.7142" y="1285.7142" width="142.8571" height="142.8571"/>
	<rect x="1571.4286" y="1285.7142" width="142.8571" height="142.8571"/>
	<rect x="1857.1428" y="1285.7142" width="142.8571" height="142.8571"/>
	<rect y="1428.5714" width="142.8571" height="142.8571"/>
	<rect x="142.8571" y="1428.5714" width="142.8571" height="142.8571"/>
	<rect x="285.7143" y="1428.5714" width="142.8571" height="142.8571"/>
	<rect x="428.5714" y="1428.5714" width="142.8571" height="142.8571"/>
	<rect x="571.4286" y="1428.5714" width="142.8571" height="142.8571"/>
	<rect x="1000" y="1428.5714" width="142.8571" height="142.8571"/>
	<rect x="1285.7142" y="1428.5714" width="142.8571" height="142.8571"/>
	<rect x="1571.4286" y="1428.5714" width="142.8571" height="142.8571"/>
	<rect x="1857.1428" y="1428.5714" width="142.8571" height="142.8571"/>
	<rect y="1571.4286" width="142.8571" height="142.8571"/>
	<rect x="285.7143" y="1571.4286" width="142.8571" height="142.8571"/>
	<rect x="428.5714" y="1571.4286" width="142.8571" height="142.8571"/>
	<rect x="714.2857" y="1571.4286" width="142.8571" height="142.8571"/>
	<rect x="857.1429" y="1571.4286" width="142.8571" height="142.8571"/>
	<rect x="1142.8572" y="1571.4286" width="142.8571" height="142.8571"/>
	<rect x="1285.7142" y="1571.4286" width="142.8571" height="142.8571"/>
	<rect x="1428.5714" y="1571.4286" width="142.8571" height="142.8571"/>
	<rect x="1714.2858" y="1571.4286" width="142.8571" height="142.8571"/>
	<rect x="428.5714" y="1714.2858" width="142.8571" height="142.8571"/>
	<rect x="857.1429" y="1714.2858" width="142.8571" height="142.8571"/>
	<rect x="1000" y="1714.2858" width="142.8571" height="142.8571"/>
	<rect x="1142.8572" y="1714.2858" width="142.8571" height="142.8571"/>
	<rect x="1285.7142" y="1714.2858" width="142.8571" height="142.8571"/>
	<rect x="1428.5714" y="1714.2858" width="142.8571" height="142.8571"/>
	<rect x="142.8571" y="1857.1428" width="142.8571" height="142.8571"/>
	<rect x="428.5714" y="1857.1428" width="142.8571" height="142.8571"/>
	<rect x="714.2857" y="1857.1428" width="142.8571" height="142.8571"/>
	<rect x="857.1429" y="1857.1428" width="142.8571" height="142.8571"/>
	<rect x="1000" y="1857.1428" width="142.8571" height="142.8571"/>
	<rect x="1142.8572" y="1857.1428" width="142.8571" height="142.8571"/>
	<rect x="1571.4286" y="1857.1428" width="142.8571" height="142.8571"/>
	<rect x="1857.1428" y="1857.1428" width="142.8571" height="142.8571"/>
	<rect x="285.7143" y="2000" width="142.8571" height="142.8571"/>
	<rect x="428.5714" y="2000" width="142.8571" height="142.8571"/>
	<rect x="571.4286" y="2000" width="142.8571" height="142.8571"/>
	<rect x="714.2857" y="2000" width="142.8571" height="142.8571"/>
	<rect x="857.1429" y="2000" width="142.8571" height="142.8571"/>
	<rect x="1142.8572" y="2000" width="142.8571" height="142.8571"/>
	<rect x="1285.7142" y="2000" width="142.8571" height="142.8571"/>
	<rect x="1714.2858" y="2000" width="142.8571" height="142.8571"/>
	<rect x="142.8571" y="2142.8572" width="142.8571" height="142.8571"/>
	<rect x="285.7143" y="2142.8572" width="142.8571" height="142.8571"/>
	<rect x="428.5714" y="2142.8572" width="142.8571" height="142.8571"/>
	<rect x="714.2857" y="2142.8572" width="142.8571" height="142.8571"/>
	<rect x="857.1429" y="2142.8572" width="142.8571" height="142.8571"/>
	<rect x="1000" y="2142.8572" width="142.8571" height="142.8571"/>
	<rect x="1142.8572" y="2142.8572" width="142.8571" height="142.8571"/>
	<rect x="1428.5714" y="2142.8572" width="142.8571" height="142.8571"/>
	<rect x="1714.2858" y="2142.8572" width="142.8571" height="142.8571"/>
	<rect x="1857.1428" y="2142.8572" width="142.8571" height="142.8571"/>
	<rect y="2285.7144" width="142.8571" height="142.8571"/>
	<rect x="142.8571" y="2285.7144" width="142.8571" height="142.8571"/>
	<rect x="428.5714" y="2285.7144" width="142.8571" height="142.8571"/>
	<rect x="714.2857" y="2285.7144" width="142.8571" height="142.8571"/>
	<rect x="857.1429" y="2285.7144" width="142.8571" height="142.8571"/>
	<rect x="1000" y="2285.7144" width="142.8571" height="142.8571"/>
	<rect x="1285.7142" y="2285.7144" width="142.8571" height="142.8571"/>
	<rect x="1714.2858" y="2285.7144" width="142.8571" height="142.8571"/>
	<rect x="1857.1428" y="2285.7144" width="142.8571" height="142.8571"/>
	<rect y="2428.5715" width="142.8571" height="142.8571"/>
	<rect x="428.5714" y="2428.5715" width="142.8571" height="142.8571"/>
	<rect x="571.4286" y="2428.5715" width="142.8571" height="142.8571"/>
	<rect x="714.2857" y="2428.5715" width="142.8571" height="142.8571"/>
	<rect x="1000" y="2428.5715" width="142.8571" height="142.8571"/>
	<rect x="1571.4286" y="2428.5715" width="142.8571" height="142.8571"/>
	<rect x="1714.2858" y="2428.5715" width="142.8571" height="142.8571"/>
	<rect x="1857.1428" y="2428.5715" width="142.8571" height="142.8571"/>
	<rect x="285.7143" y="2571.4285" width="142.8571" height="142.8571"/>
	<rect x="571.4286" y="2571.4285" width="142.8571" height="142.8571"/>
	<rect x="714.2857" y="2571.4285" width="142.8571" height="142.8571"/>
	<rect x="1142.8572" y="2571.4285" width="142.8571" height="142.8571"/>
	<rect x="1428.5714" y="2571.4285" width="142.8571" height="142.8571"/>
	<rect x="1571.4286" y="2571.4285" width="142.8571" height="142.8571"/>
	<rect x="1714.2858" y="2571.4285" width="142.8571" height="142.8571"/>
	<rect y="2714.2856" width="142.8571" height="142.8571"/>
	<rect x="285.7143" y="2714.2856" width="142.8571" height="142.8571"/>
	<rect x="428.5714" y="2714.2856" width="142.8571" height="142.8571"/>
	<rect x="571.4286" y="2714.2856" width="142.8571" height="142.8571"/>
	<rect x="1000" y="2714.2856" width="142.8571" height="142.8571"/>
	<rect x="1285.7142" y="2714.2856" width="142.8571" height="142.8571"/>
	<rect x="1428.5714" y="2714.2856" width="142.8571" height="142.8571"/>
	<rect x="1571.4286" y="2714.2856" width="142.8571" height="142.8571"/>
	<rect x="1714.2858" y="2714.2856" width="142.8571" height="142.8571"/>
	<rect x="142.8571" y="2857.1428" width="142.8571" height="142.8571"/>
	<rect x="857.1429" y="2857.1428" width="142.8571" height="142.8571"/>
	<rect x="1000" y="2857.1428" width="142.8571" height="142.8571"/>
	<rect x="1142.8572" y="2857.1428" width="142.8571" height="142.8571"/>
	<rect x="1428.5714" y="2857.1428" width="142.8571" height="142.8571"/>
	<rect x="1571.4286" y="2857.1428" width="142.8571" height="142.8571"/>
	<rect x="1714.2858" y="2857.1428" width="142.8571" height="142.8571"/>
</g>
</svg>
