<?xml version="1.0" encoding="utf-8"?>
<!-- Generator: Adobe Illustrator 27.0.0, SVG Export Plug-In . SVG Version: 6.00 Build 0)  -->
<svg version="1.1" id="Layer_1" xmlns="http://www.w3.org/2000/svg" xmlns:xlink="http://www.w3.org/1999/xlink" x="0px" y="0px"
	 viewBox="0 0 2000 3000" style="enable-background:new 0 0 2000 3000;" xml:space="preserve">
<g>
	<rect width="71.4286" height="71.4286"/>
	<rect x="142.8571" width="71.4286" height="71.4286"/>
	<rect x="285.7143" width="71.4286" height="71.4286"/>
	<rect x="428.5714" width="71.4286" height="71.4286"/>
	<rect x="571.4286" width="71.4286" height="71.4286"/>
	<rect x="714.2857" width="71.4286" height="71.4286"/>
	<rect x="857.1429" width="71.4286" height="71.4286"/>
	<rect x="1000" width="71.4286" height="71.4286"/>
	<rect x="1142.8572" width="71.4286" height="71.4286"/>
	<rect x="1285.7142" width="71.4286" height="71.4286"/>
	<rect x="1428.5714" width="71.4286" height="71.4286"/>
	<rect x="1571.4286" width="71.4286" height="71.4286"/>
	<rect x="1714.2858" width="71.4286" height="71.4286"/>
	<rect x="1857.1428" width="71.4286" height="71.4286"/>
	<rect y="71.4286" width="71.4286" height="71.4286"/>
	<rect x="142.8571" y="71.4286" width="71.4286" height="71.4286"/>
	<rect x="357.1429" y="71.4286" width="71.4286" height="71.4286"/>
	<rect x="500" y="71.4286" width="71.4286" height="71.4286"/>
	<rect x="642.8571" y="71.4286" width="71.4286" height="71.4286"/>
	<rect x="785.7143" y="71.4286" width="71.4286" height="71.4286"/>
	<rect x="928.5714" y="71.4286" width="71.4286" height="71.4286"/>
	<rect x="1071.4286" y="71.4286" width="71.4286" height="71.4286"/>
	<rect x="1214.2858" y="71.4286" width="71.4286" height="71.4286"/>
	<rect x="1357.1428" y="71.4286" width="71.4286" height="71.4286"/>
	<rect x="1500" y="71.4286" width="71.4286" height="71.4286"/>
	<rect x="1642.8572" y="71.4286" width="71.4286" height="71.4286"/>
	<rect x="1785.7142" y="71.4286" width="71.4286" height="71.4286"/>
	<rect x="1928.5714" y="71.4286" width="71.4286" height="71.4286"/>
	<rect y="142.8571" width="71.4286" height="71.4286"/>
	<rect x="214.2857" y="142.8571" width="71.4286" height="71.4286"/>
	<rect x="428.5714" y="142.8571" width="71.4286" height="71.4286"/>
	<rect x="571.4286" y="142.8571" width="71.4286" height="71.4286"/>
	<rect x="714.2857" y="142.8571" width="71.4286" height="71.4286"/>
	<rect x="857.1429" y="142.8571" width="71.4286" height="71.4286"/>
	<rect x="1000" y="142.8571" width="71.4286" height="71.4286"/>
	<rect x="1142.8572" y="142.8571" width="71.4286" height="71.4286"/>
	<rect x="1285.7142" y="142.8571" width="71.4286" height="71.4286"/>
	<rect x="1428.5714" y="142.8571" width="71.4286" height="71.4286"/>
	<rect x="1571.4286" y="142.8571" width="71.4286" height="71.4286"/>
	<rect x="1714.2858" y="142.8571" width="71.4286" height="71.4286"/>
	<rect x="1857.1428" y="142.8571" width="71.4286" height="71.4286"/>
	<rect x="71.4286" y="214.2857" width="71.4286" height="71.4286"/>
	<rect x="285.7143" y="214.2857" width="71.4286" height="71.4286"/>
	<rect x="500" y="214.2857" width="71.4286" height="71.4286"/>
	<rect x="642.8571" y="214.2857" width="71.4286" height="71.4286"/>
	<rect x="785.7143" y="214.2857" width="71.4286" height="71.4286"/>
	<rect x="928.5714" y="214.2857" width="71.4286" height="71.4286"/>
	<rect x="1071.4286" y="214.2857" width="71.4286" height="71.4286"/>
	<rect x="1214.2858" y="214.2857" width="71.4286" height="71.4286"/>
	<rect x="1357.1428" y="214.2857" width="71.4286" height="71.4286"/>
	<rect x="1500" y="214.2857" width="71.4286" height="71.4286"/>
	<rect x="1642.8572" y="214.2857" width="71.4286" height="71.4286"/>
	<rect x="1785.7142" y="214.2857" width="71.4286" height="71.4286"/>
	<rect x="1928.5714" y="214.2857" width="71.4286" height="71.4286"/>
	<rect x="142.8571" y="285.7143" width="71.4286" height="71.4286"/>
	<rect x="357.1429" y="285.7143" width="71.4286" height="71.4286"/>
	<rect x="571.4286" y="285.7143" width="71.4286" height="71.4286"/>
	<rect x="714.2857" y="285.7143" width="71.4286" height="71.4286"/>
	<rect x="857.1429" y="285.7143" width="71.4286" height="71.4286"/>
	<rect x="1000" y="285.7143" width="71.4286" height="71.4286"/>
	<rect x="1142.8572" y="285.7143" width="71.4286" height="71.4286"/>
	<rect x="1285.7142" y="285.7143" width="71.4286" height="71.4286"/>
	<rect x="1428.5714" y="285.7143" width="71.4286" height="71.4286"/>
	<rect x="1571.4286" y="285.7143" width="71.4286" height="71.4286"/>
	<rect x="1714.2858" y="285.7143" width="71.4286" height="71.4286"/>
	<rect x="1857.1428" y="285.7143" width="71.4286" height="71.4286"/>
	<rect y="357.1429" width="71.4286" height="71.4286"/>
	<rect x="214.2857" y="357.1429" width="71.4286" height="71.4286"/>
	<rect x="428.5714" y="357.1429" width="71.4286" height="71.4286"/>
	<rect x="642.8571" y="357.1429" width="71.4286" height="71.4286"/>
	<rect x="785.7143" y="357.1429" width="71.4286" height="71.4286"/>
	<rect x="928.5714" y="357.1429" width="71.4286" height="71.4286"/>
	<rect x="1071.4286" y="357.1429" width="71.4286" height="71.4286"/>
	<rect x="1214.2858" y="357.1429" width="71.4286" height="71.4286"/>
	<rect x="1357.1428" y="357.1429" width="71.4286" height="71.4286"/>
	<rect x="1500" y="357.1429" width="71.4286" height="71.4286"/>
	<rect x="1642.8572" y="357.1429" width="71.4286" height="71.4286"/>
	<rect x="1785.7142" y="357.1429" width="71.4286" height="71.4286"/>
	<rect x="1928.5714" y="357.1429" width="71.4286" height="71.4286"/>
	<rect y="428.5714" width="71.4286" height="71.4286"/>
	<rect x="142.8571" y="428.5714" width="71.4286" height="71.4286"/>
	<rect x="285.7143" y="428.5714" width="71.4286" height="71.4286"/>
	<rect x="500" y="428.5714" width="71.4286" height="71.4286"/>
	<rect x="714.2857" y="428.5714" width="71.4286" height="71.4286"/>
	<rect x="857.1429" y="428.5714" width="71.4286" height="71.4286"/>
	<rect x="1000" y="428.5714" width="71.4286" height="71.4286"/>
	<rect x="1142.8572" y="428.5714" width="71.4286" height="71.4286"/>
	<rect x="1285.7142" y="428.5714" width="71.4286" height="71.4286"/>
	<rect x="1428.5714" y="428.5714" width="71.4286" height="71.4286"/>
	<rect x="1571.4286" y="428.5714" width="71.4286" height="71.4286"/>
	<rect x="1714.2858" y="428.5714" width="71.4286" height="71.4286"/>
	<rect x="1857.1428" y="428.5714" width="71.4286" height="71.4286"/>
	<rect y="500" width="71.4286" height="71.4286"/>
	<rect x="71.4286" y="500" width="71.4286" height="71.4286"/>
	<rect x="214.2857" y="500" width="71.4286" height="71.4286"/>
	<rect x="357.1429" y="500" width="71.4286" height="71.4286"/>
	<rect x="571.4286" y="500" width="71.4286" height="71.4286"/>
	<rect x="785.7143" y="500" width="71.4286" height="71.4286"/>
	<rect x="928.5714" y="500" width="71.4286" height="71.4286"/>
	<rect x="1071.4286" y="500" width="71.4286" height="71.4286"/>
	<rect x="1214.2858" y="500" width="71.4286" height="71.4286"/>
	<rect x="1357.1428" y="500" width="71.4286" height="71.4286"/>
	<rect x="1500" y="500" width="71.4286" height="71.4286"/>
	<rect x="1642.8572" y="500" width="71.4286" height="71.4286"/>
	<rect x="1785.7142" y="500" width="71.4286" height="71.4286"/>
	<rect x="1928.5714" y="500" width="71.4286" height="71.4286"/>
	<rect x="71.4286" y="571.4286" width="71.4286" height="71.4286"/>
	<rect x="285.7143" y="571.4286" width="71.4286" height="71.4286"/>
	<rect x="428.5714" y="571.4286" width="71.4286" height="71.4286"/>
	<rect x="571.4286" y="571.4286" width="71.4286" height="71.4286"/>
	<rect x="714.2857" y="571.4286" width="71.4286" height="71.4286"/>
	<rect x="857.1429" y="571.4286" width="71.4286" height="71.4286"/>
	<rect x="1000" y="571.4286" width="71.4286" height="71.4286"/>
	<rect x="1142.8572" y="571.4286" width="71.4286" height="71.4286"/>
	<rect x="1285.7142" y="571.4286" width="71.4286" height="71.4286"/>
	<rect x="1428.5714" y="571.4286" width="71.4286" height="71.4286"/>
	<rect x="1571.4286" y="571.4286" width="71.4286" height="71.4286"/>
	<rect x="1714.2858" y="571.4286" width="71.4286" height="71.4286"/>
	<rect x="1857.1428" y="571.4286" width="71.4286" height="71.4286"/>
	<rect x="142.8571" y="642.8571" width="71.4286" height="71.4286"/>
	<rect x="357.1429" y="642.8571" width="71.4286" height="71.4286"/>
	<rect x="500" y="642.8571" width="71.4286" height="71.4286"/>
	<rect x="642.8571" y="642.8571" width="71.4286" height="71.4286"/>
	<rect x="785.7143" y="642.8571" width="71.4286" height="71.4286"/>
	<rect x="928.5714" y="642.8571" width="71.4286" height="71.4286"/>
	<rect x="1071.4286" y="642.8571" width="71.4286" height="71.4286"/>
	<rect x="1214.2858" y="642.8571" width="71.4286" height="71.4286"/>
	<rect x="1357.1428" y="642.8571" width="71.4286" height="71.4286"/>
	<rect x="1500" y="642.8571" width="71.4286" height="71.4286"/>
	<rect x="1642.8572" y="642.8571" width="71.4286" height="71.4286"/>
	<rect x="1785.7142" y="642.8571" width="71.4286" height="71.4286"/>
	<rect x="1928.5714" y="642.8571" width="71.4286" height="71.4286"/>
	<rect y="714.2857" width="71.4286" height="71.4286"/>
	<rect x="214.2857" y="714.2857" width="71.4286" height="71.4286"/>
	<rect x="428.5714" y="714.2857" width="71.4286" height="71.4286"/>
	<rect x="571.4286" y="714.2857" width="71.4286" height="71.4286"/>
	<rect x="714.2857" y="714.2857" width="71.4286" height="71.4286"/>
	<rect x="857.1429" y="714.2857" width="71.4286" height="71.4286"/>
	<rect x="1000" y="714.2857" width="71.4286" height="71.4286"/>
	<rect x="1142.8572" y="714.2857" width="71.4286" height="71.4286"/>
	<rect x="1285.7142" y="714.2857" width="71.4286" height="71.4286"/>
	<rect x="1428.5714" y="714.2857" width="71.4286" height="71.4286"/>
	<rect x="1571.4286" y="714.2857" width="71.4286" height="71.4286"/>
	<rect x="1714.2858" y="714.2857" width="71.4286" height="71.4286"/>
	<rect x="1857.1428" y="714.2857" width="71.4286" height="71.4286"/>
	<rect x="71.4286" y="785.7143" width="71.4286" height="71.4286"/>
	<rect x="214.2857" y="785.7143" width="71.4286" height="71.4286"/>
	<rect x="357.1429" y="785.7143" width="71.4286" height="71.4286"/>
	<rect x="500" y="785.7143" width="71.4286" height="71.4286"/>
	<rect x="642.8571" y="785.7143" width="71.4286" height="71.4286"/>
	<rect x="785.7143" y="785.7143" width="71.4286" height="71.4286"/>
	<rect x="928.5714" y="785.7143" width="71.4286" height="71.4286"/>
	<rect x="1071.4286" y="785.7143" width="71.4286" height="71.4286"/>
	<rect x="1214.2858" y="785.7143" width="71.4286" height="71.4286"/>
	<rect x="1357.1428" y="785.7143" width="71.4286" height="71.4286"/>
	<rect x="1500" y="785.7143" width="71.4286" height="71.4286"/>
	<rect x="1642.8572" y="785.7143" width="71.4286" height="71.4286"/>
	<rect x="1785.7142" y="785.7143" width="71.4286" height="71.4286"/>
	<rect x="1928.5714" y="785.7143" width="71.4286" height="71.4286"/>
	<rect y="857.1429" width="71.4286" height="71.4286"/>
	<rect x="142.8571" y="857.1429" width="71.4286" height="71.4286"/>
	<rect x="285.7143" y="857.1429" width="71.4286" height="71.4286"/>
	<rect x="428.5714" y="857.1429" width="71.4286" height="71.4286"/>
	<rect x="571.4286" y="857.1429" width="71.4286" height="71.4286"/>
	<rect x="714.2857" y="857.1429" width="71.4286" height="71.4286"/>
	<rect x="857.1429" y="857.1429" width="71.4286" height="71.4286"/>
	<rect x="1000" y="857.1429" width="71.4286" height="71.4286"/>
	<rect x="1142.8572" y="857.1429" width="71.4286" height="71.4286"/>
	<rect x="1214.2858" y="857.1429" width="71.4286" height="71.4286"/>
	<rect x="1428.5714" y="857.1429" width="71.4286" height="71.4286"/>
	<rect x="1571.4286" y="857.1429" width="71.4286" height="71.4286"/>
	<rect x="1714.2858" y="857.1429" width="71.4286" height="71.4286"/>
	<rect x="1857.1428" y="857.1429" width="71.4286" height="71.4286"/>
	<rect y="928.5714" width="71.4286" height="71.4286"/>
	<rect x="71.4286" y="928.5714" width="71.4286" height="71.4286"/>
	<rect x="214.2857" y="928.5714" width="71.4286" height="71.4286"/>
	<rect x="357.1429" y="928.5714" width="71.4286" height="71.4286"/>
	<rect x="500" y="928.5714" width="71.4286" height="71.4286"/>
	<rect x="642.8571" y="928.5714" width="71.4286" height="71.4286"/>
	<rect x="785.7143" y="928.5714" width="71.4286" height="71.4286"/>
	<rect x="928.5714" y="928.5714" width="71.4286" height="71.4286"/>
	<rect x="1071.4286" y="928.5714" width="71.4286" height="71.4286"/>
	<rect x="1214.2858" y="928.5714" width="71.4286" height="71.4286"/>
	<rect x="1357.1428" y="928.5714" width="71.4286" height="71.4286"/>
	<rect x="1500" y="928.5714" width="71.4286" height="71.4286"/>
	<rect x="1642.8572" y="928.5714" width="71.4286" height="71.4286"/>
	<rect x="1785.7142" y="928.5714" width="71.4286" height="71.4286"/>
	<rect x="1928.5714" y="928.5714" width="71.4286" height="71.4286"/>
	<rect x="71.4286" y="1000" width="71.4286" height="71.4286"/>
	<rect x="285.7143" y="1000" width="71.4286" height="71.4286"/>
	<rect x="428.5714" y="1000" width="71.4286" height="71.4286"/>
	<rect x="571.4286" y="1000" width="71.4286" height="71.4286"/>
	<rect x="714.2857" y="1000" width="71.4286" height="71.4286"/>
	<rect x="857.1429" y="1000" width="71.4286" height="71.4286"/>
	<rect x="1000" y="1000" width="71.4286" height="71.4286"/>
	<rect x="1142.8572" y="1000" width="71.4286" height="71.4286"/>
	<rect x="1285.7142" y="1000" width="71.4286" height="71.4286"/>
	<rect x="1428.5714" y="1000" width="71.4286" height="71.4286"/>
	<rect x="1571.4286" y="1000" width="71.4286" height="71.4286"/>
	<rect x="1714.2858" y="1000" width="71.4286" height="71.4286"/>
	<rect x="1857.1428" y="1000" width="71.4286" height="71.4286"/>
	<rect y="1071.4286" width="71.4286" height="71.4286"/>
	<rect x="142.8571" y="1071.4286" width="71.4286" height="71.4286"/>
	<rect x="285.7143" y="1071.4286" width="71.4286" height="71.4286"/>
	<rect x="428.5714" y="1071.4286" width="71.4286" height="71.4286"/>
	<rect x="642.8571" y="1071.4286" width="71.4286" height="71.4286"/>
	<rect x="785.7143" y="1071.4286" width="71.4286" height="71.4286"/>
	<rect x="928.5714" y="1071.4286" width="71.4286" height="71.4286"/>
	<rect x="1000" y="1071.4286" width="71.4286" height="71.4286"/>
	<rect x="1071.4286" y="1071.4286" width="71.4286" height="71.4286"/>
	<rect x="1142.8572" y="1071.4286" width="71.4286" height="71.4286"/>
	<rect x="1214.2858" y="1071.4286" width="71.4286" height="71.4286"/>
	<rect x="1357.1428" y="1071.4286" width="71.4286" height="71.4286"/>
	<rect x="1500" y="1071.4286" width="71.4286" height="71.4286"/>
	<rect x="1642.8572" y="1071.4286" width="71.4286" height="71.4286"/>
	<rect x="1785.7142" y="1071.4286" width="71.4286" height="71.4286"/>
	<rect x="1928.5714" y="1071.4286" width="71.4286" height="71.4286"/>
	<rect x="71.4286" y="1142.8572" width="71.4286" height="71.4286"/>
	<rect x="214.2857" y="1142.8572" width="71.4286" height="71.4286"/>
	<rect x="357.1429" y="1142.8572" width="71.4286" height="71.4286"/>
	<rect x="500" y="1142.8572" width="71.4286" height="71.4286"/>
	<rect x="571.4286" y="1142.8572" width="71.4286" height="71.4286"/>
	<rect x="642.8571" y="1142.8572" width="71.4286" height="71.4286"/>
	<rect x="785.7143" y="1142.8572" width="71.4286" height="71.4286"/>
	<rect x="928.5714" y="1142.8572" width="71.4286" height="71.4286"/>
	<rect x="1071.4286" y="1142.8572" width="71.4286" height="71.4286"/>
	<rect x="1214.2858" y="1142.8572" width="71.4286" height="71.4286"/>
	<rect x="1357.1428" y="1142.8572" width="71.4286" height="71.4286"/>
	<rect x="1571.4286" y="1142.8572" width="71.4286" height="71.4286"/>
	<rect x="1714.2858" y="1142.8572" width="71.4286" height="71.4286"/>
	<rect x="1857.1428" y="1142.8572" width="71.4286" height="71.4286"/>
	<rect y="1214.2858" width="71.4286" height="71.4286"/>
	<rect x="142.8571" y="1214.2858" width="71.4286" height="71.4286"/>
	<rect x="285.7143" y="1214.2858" width="71.4286" height="71.4286"/>
	<rect x="428.5714" y="1214.2858" width="71.4286" height="71.4286"/>
	<rect x="642.8571" y="1214.2858" width="71.4286" height="71.4286"/>
	<rect x="785.7143" y="1214.2858" width="71.4286" height="71.4286"/>
	<rect x="857.1429" y="1214.2858" width="71.4286" height="71.4286"/>
	<rect x="928.5714" y="1214.2858" width="71.4286" height="71.4286"/>
	<rect x="1000" y="1214.2858" width="71.4286" height="71.4286"/>
	<rect x="1071.4286" y="1214.2858" width="71.4286" height="71.4286"/>
	<rect x="1214.2858" y="1214.2858" width="71.4286" height="71.4286"/>
	<rect x="1428.5714" y="1214.2858" width="71.4286" height="71.4286"/>
	<rect x="1571.4286" y="1214.2858" width="71.4286" height="71.4286"/>
	<rect x="1714.2858" y="1214.2858" width="71.4286" height="71.4286"/>
	<rect x="1857.1428" y="1214.2858" width="71.4286" height="71.4286"/>
	<rect y="1285.7142" width="71.4286" height="71.4286"/>
	<rect x="142.8571" y="1285.7142" width="71.4286" height="71.4286"/>
	<rect x="357.1429" y="1285.7142" width="71.4286" height="71.4286"/>
	<rect x="500" y="1285.7142" width="71.4286" height="71.4286"/>
	<rect x="642.8571" y="1285.7142" width="71.4286" height="71.4286"/>
	<rect x="714.2857" y="1285.7142" width="71.4286" height="71.4286"/>
	<rect x="857.1429" y="1285.7142" width="71.4286" height="71.4286"/>
	<rect x="1000" y="1285.7142" width="71.4286" height="71.4286"/>
	<rect x="1142.8572" y="1285.7142" width="71.4286" height="71.4286"/>
	<rect x="1285.7142" y="1285.7142" width="71.4286" height="71.4286"/>
	<rect x="1500" y="1285.7142" width="71.4286" height="71.4286"/>
	<rect x="1642.8572" y="1285.7142" width="71.4286" height="71.4286"/>
	<rect x="1785.7142" y="1285.7142" width="71.4286" height="71.4286"/>
	<rect x="1928.5714" y="1285.7142" width="71.4286" height="71.4286"/>
	<rect y="1357.1428" width="71.4286" height="71.4286"/>
	<rect x="142.8571" y="1357.1428" width="71.4286" height="71.4286"/>
	<rect x="285.7143" y="1357.1428" width="71.4286" height="71.4286"/>
	<rect x="428.5714" y="1357.1428" width="71.4286" height="71.4286"/>
	<rect x="571.4286" y="1357.1428" width="71.4286" height="71.4286"/>
	<rect x="714.2857" y="1357.1428" width="71.4286" height="71.4286"/>
	<rect x="785.7143" y="1357.1428" width="71.4286" height="71.4286"/>
	<rect x="928.5714" y="1357.1428" width="71.4286" height="71.4286"/>
	<rect x="1071.4286" y="1357.1428" width="71.4286" height="71.4286"/>
	<rect x="1214.2858" y="1357.1428" width="71.4286" height="71.4286"/>
	<rect x="1357.1428" y="1357.1428" width="71.4286" height="71.4286"/>
	<rect x="1500" y="1357.1428" width="71.4286" height="71.4286"/>
	<rect x="1642.8572" y="1357.1428" width="71.4286" height="71.4286"/>
	<rect x="1857.1428" y="1357.1428" width="71.4286" height="71.4286"/>
	<rect x="71.4286" y="1428.5714" width="71.4286" height="71.4286"/>
	<rect x="214.2857" y="1428.5714" width="71.4286" height="71.4286"/>
	<rect x="357.1429" y="1428.5714" width="71.4286" height="71.4286"/>
	<rect x="500" y="1428.5714" width="71.4286" height="71.4286"/>
	<rect x="642.8571" y="1428.5714" width="71.4286" height="71.4286"/>
	<rect x="785.7143" y="1428.5714" width="71.4286" height="71.4286"/>
	<rect x="928.5714" y="1428.5714" width="71.4286" height="71.4286"/>
	<rect x="1142.8572" y="1428.5714" width="71.4286" height="71.4286"/>
	<rect x="1285.7142" y="1428.5714" width="71.4286" height="71.4286"/>
	<rect x="1428.5714" y="1428.5714" width="71.4286" height="71.4286"/>
	<rect x="1571.4286" y="1428.5714" width="71.4286" height="71.4286"/>
	<rect x="1714.2858" y="1428.5714" width="71.4286" height="71.4286"/>
	<rect x="1928.5714" y="1428.5714" width="71.4286" height="71.4286"/>
	<rect x="142.8571" y="1500" width="71.4286" height="71.4286"/>
	<rect x="285.7143" y="1500" width="71.4286" height="71.4286"/>
	<rect x="428.5714" y="1500" width="71.4286" height="71.4286"/>
	<rect x="571.4286" y="1500" width="71.4286" height="71.4286"/>
	<rect x="714.2857" y="1500" width="71.4286" height="71.4286"/>
	<rect x="857.1429" y="1500" width="71.4286" height="71.4286"/>
	<rect x="1000" y="1500" width="71.4286" height="71.4286"/>
	<rect x="1142.8572" y="1500" width="71.4286" height="71.4286"/>
	<rect x="1285.7142" y="1500" width="71.4286" height="71.4286"/>
	<rect x="1428.5714" y="1500" width="71.4286" height="71.4286"/>
	<rect x="1571.4286" y="1500" width="71.4286" height="71.4286"/>
	<rect x="1714.2858" y="1500" width="71.4286" height="71.4286"/>
	<rect x="1857.1428" y="1500" width="71.4286" height="71.4286"/>
	<rect y="1571.4286" width="71.4286" height="71.4286"/>
	<rect x="214.2857" y="1571.4286" width="71.4286" height="71.4286"/>
	<rect x="357.1429" y="1571.4286" width="71.4286" height="71.4286"/>
	<rect x="500" y="1571.4286" width="71.4286" height="71.4286"/>
	<rect x="642.8571" y="1571.4286" width="71.4286" height="71.4286"/>
	<rect x="785.7143" y="1571.4286" width="71.4286" height="71.4286"/>
	<rect x="928.5714" y="1571.4286" width="71.4286" height="71.4286"/>
	<rect x="1071.4286" y="1571.4286" width="71.4286" height="71.4286"/>
	<rect x="1214.2858" y="1571.4286" width="71.4286" height="71.4286"/>
	<rect x="1357.1428" y="1571.4286" width="71.4286" height="71.4286"/>
	<rect x="1500" y="1571.4286" width="71.4286" height="71.4286"/>
	<rect x="1642.8572" y="1571.4286" width="71.4286" height="71.4286"/>
	<rect x="1785.7142" y="1571.4286" width="71.4286" height="71.4286"/>
	<rect x="1928.5714" y="1571.4286" width="71.4286" height="71.4286"/>
	<rect x="71.4286" y="1642.8572" width="71.4286" height="71.4286"/>
	<rect x="214.2857" y="1642.8572" width="71.4286" height="71.4286"/>
	<rect x="428.5714" y="1642.8572" width="71.4286" height="71.4286"/>
	<rect x="571.4286" y="1642.8572" width="71.4286" height="71.4286"/>
	<rect x="714.2857" y="1642.8572" width="71.4286" height="71.4286"/>
	<rect x="857.1429" y="1642.8572" width="71.4286" height="71.4286"/>
	<rect x="1000" y="1642.8572" width="71.4286" height="71.4286"/>
	<rect x="1142.8572" y="1642.8572" width="71.4286" height="71.4286"/>
	<rect x="1285.7142" y="1642.8572" width="71.4286" height="71.4286"/>
	<rect x="1428.5714" y="1642.8572" width="71.4286" height="71.4286"/>
	<rect x="1571.4286" y="1642.8572" width="71.4286" height="71.4286"/>
	<rect x="1714.2858" y="1642.8572" width="71.4286" height="71.4286"/>
	<rect x="1857.1428" y="1642.8572" width="71.4286" height="71.4286"/>
	<rect y="1714.2858" width="71.4286" height="71.4286"/>
	<rect x="142.8571" y="1714.2858" width="71.4286" height="71.4286"/>
	<rect x="285.7143" y="1714.2858" width="71.4286" height="71.4286"/>
	<rect x="428.5714" y="1714.2858" width="71.4286" height="71.4286"/>
	<rect x="571.4286" y="1714.2858" width="71.4286" height="71.4286"/>
	<rect x="714.2857" y="1714.2858" width="71.4286" height="71.4286"/>
	<rect x="785.7143" y="1714.2858" width="71.4286" height="71.4286"/>
	<rect x="928.5714" y="1714.2858" width="71.4286" height="71.4286"/>
	<rect x="1071.4286" y="1714.2858" width="71.4286" height="71.4286"/>
	<rect x="1214.2858" y="1714.2858" width="71.4286" height="71.4286"/>
	<rect x="1357.1428" y="1714.2858" width="71.4286" height="71.4286"/>
	<rect x="1500" y="1714.2858" width="71.4286" height="71.4286"/>
	<rect x="1642.8572" y="1714.2858" width="71.4286" height="71.4286"/>
	<rect x="1785.7142" y="1714.2858" width="71.4286" height="71.4286"/>
	<rect x="1928.5714" y="1714.2858" width="71.4286" height="71.4286"/>
	<rect y="1785.7142" width="71.4286" height="71.4286"/>
	<rect x="71.4286" y="1785.7142" width="71.4286" height="71.4286"/>
	<rect x="214.2857" y="1785.7142" width="71.4286" height="71.4286"/>
	<rect x="357.1429" y="1785.7142" width="71.4286" height="71.4286"/>
	<rect x="500" y="1785.7142" width="71.4286" height="71.4286"/>
	<rect x="642.8571" y="1785.7142" width="71.4286" height="71.4286"/>
	<rect x="785.7143" y="1785.7142" width="71.4286" height="71.4286"/>
	<rect x="928.5714" y="1785.7142" width="71.4286" height="71.4286"/>
	<rect x="1142.8572" y="1785.7142" width="71.4286" height="71.4286"/>
	<rect x="1285.7142" y="1785.7142" width="71.4286" height="71.4286"/>
	<rect x="1428.5714" y="1785.7142" width="71.4286" height="71.4286"/>
	<rect x="1571.4286" y="1785.7142" width="71.4286" height="71.4286"/>
	<rect x="1714.2858" y="1785.7142" width="71.4286" height="71.4286"/>
	<rect x="1785.7142" y="1785.7142" width="71.4286" height="71.4286"/>
	<rect x="1857.1428" y="1785.7142" width="71.4286" height="71.4286"/>
	<rect y="1857.1428" width="71.4286" height="71.4286"/>
	<rect x="142.8571" y="1857.1428" width="71.4286" height="71.4286"/>
	<rect x="285.7143" y="1857.1428" width="71.4286" height="71.4286"/>
	<rect x="428.5714" y="1857.1428" width="71.4286" height="71.4286"/>
	<rect x="571.4286" y="1857.1428" width="71.4286" height="71.4286"/>
	<rect x="714.2857" y="1857.1428" width="71.4286" height="71.4286"/>
	<rect x="857.1429" y="1857.1428" width="71.4286" height="71.4286"/>
	<rect x="1000" y="1857.1428" width="71.4286" height="71.4286"/>
	<rect x="1214.2858" y="1857.1428" width="71.4286" height="71.4286"/>
	<rect x="1357.1428" y="1857.1428" width="71.4286" height="71.4286"/>
	<rect x="1500" y="1857.1428" width="71.4286" height="71.4286"/>
	<rect x="1642.8572" y="1857.1428" width="71.4286" height="71.4286"/>
	<rect x="1785.7142" y="1857.1428" width="71.4286" height="71.4286"/>
	<rect x="1928.5714" y="1857.1428" width="71.4286" height="71.4286"/>
	<rect y="1928.5714" width="71.4286" height="71.4286"/>
	<rect x="142.8571" y="1928.5714" width="71.4286" height="71.4286"/>
	<rect x="285.7143" y="1928.5714" width="71.4286" height="71.4286"/>
	<rect x="428.5714" y="1928.5714" width="71.4286" height="71.4286"/>
	<rect x="571.4286" y="1928.5714" width="71.4286" height="71.4286"/>
	<rect x="714.2857" y="1928.5714" width="71.4286" height="71.4286"/>
	<rect x="928.5714" y="1928.5714" width="71.4286" height="71.4286"/>
	<rect x="1071.4286" y="1928.5714" width="71.4286" height="71.4286"/>
	<rect x="1214.2858" y="1928.5714" width="71.4286" height="71.4286"/>
	<rect x="1357.1428" y="1928.5714" width="71.4286" height="71.4286"/>
	<rect x="1500" y="1928.5714" width="71.4286" height="71.4286"/>
	<rect x="1642.8572" y="1928.5714" width="71.4286" height="71.4286"/>
	<rect x="1714.2858" y="1928.5714" width="71.4286" height="71.4286"/>
	<rect x="1857.1428" y="1928.5714" width="71.4286" height="71.4286"/>
	<rect x="71.4286" y="2000" width="71.4286" height="71.4286"/>
	<rect x="214.2857" y="2000" width="71.4286" height="71.4286"/>
	<rect x="357.1429" y="2000" width="71.4286" height="71.4286"/>
	<rect x="500" y="2000" width="71.4286" height="71.4286"/>
	<rect x="642.8571" y="2000" width="71.4286" height="71.4286"/>
	<rect x="785.7143" y="2000" width="71.4286" height="71.4286"/>
	<rect x="928.5714" y="2000" width="71.4286" height="71.4286"/>
	<rect x="1142.8572" y="2000" width="71.4286" height="71.4286"/>
	<rect x="1285.7142" y="2000" width="71.4286" height="71.4286"/>
	<rect x="1428.5714" y="2000" width="71.4286" height="71.4286"/>
	<rect x="1571.4286" y="2000" width="71.4286" height="71.4286"/>
	<rect x="1714.2858" y="2000" width="71.4286" height="71.4286"/>
	<rect x="1857.1428" y="2000" width="71.4286" height="71.4286"/>
	<rect x="142.8571" y="2071.4285" width="71.4286" height="71.4286"/>
	<rect x="285.7143" y="2071.4285" width="71.4286" height="71.4286"/>
	<rect x="428.5714" y="2071.4285" width="71.4286" height="71.4286"/>
	<rect x="571.4286" y="2071.4285" width="71.4286" height="71.4286"/>
	<rect x="714.2857" y="2071.4285" width="71.4286" height="71.4286"/>
	<rect x="857.1429" y="2071.4285" width="71.4286" height="71.4286"/>
	<rect x="1000" y="2071.4285" width="71.4286" height="71.4286"/>
	<rect x="1214.2858" y="2071.4285" width="71.4286" height="71.4286"/>
	<rect x="1357.1428" y="2071.4285" width="71.4286" height="71.4286"/>
	<rect x="1500" y="2071.4285" width="71.4286" height="71.4286"/>
	<rect x="1642.8572" y="2071.4285" width="71.4286" height="71.4286"/>
	<rect x="1785.7142" y="2071.4285" width="71.4286" height="71.4286"/>
	<rect x="1928.5714" y="2071.4285" width="71.4286" height="71.4286"/>
	<rect y="2142.8572" width="71.4286" height="71.4286"/>
	<rect x="142.8571" y="2142.8572" width="71.4286" height="71.4286"/>
	<rect x="285.7143" y="2142.8572" width="71.4286" height="71.4286"/>
	<rect x="500" y="2142.8572" width="71.4286" height="71.4286"/>
	<rect x="642.8571" y="2142.8572" width="71.4286" height="71.4286"/>
	<rect x="785.7143" y="2142.8572" width="71.4286" height="71.4286"/>
	<rect x="928.5714" y="2142.8572" width="71.4286" height="71.4286"/>
	<rect x="1071.4286" y="2142.8572" width="71.4286" height="71.4286"/>
	<rect x="1285.7142" y="2142.8572" width="71.4286" height="71.4286"/>
	<rect x="1428.5714" y="2142.8572" width="71.4286" height="71.4286"/>
	<rect x="1571.4286" y="2142.8572" width="71.4286" height="71.4286"/>
	<rect x="1714.2858" y="2142.8572" width="71.4286" height="71.4286"/>
	<rect x="1857.1428" y="2142.8572" width="71.4286" height="71.4286"/>
	<rect y="2214.2856" width="71.4286" height="71.4286"/>
	<rect x="142.8571" y="2214.2856" width="71.4286" height="71.4286"/>
	<rect x="357.1429" y="2214.2856" width="71.4286" height="71.4286"/>
	<rect x="571.4286" y="2214.2856" width="71.4286" height="71.4286"/>
	<rect x="714.2857" y="2214.2856" width="71.4286" height="71.4286"/>
	<rect x="857.1429" y="2214.2856" width="71.4286" height="71.4286"/>
	<rect x="1000" y="2214.2856" width="71.4286" height="71.4286"/>
	<rect x="1142.8572" y="2214.2856" width="71.4286" height="71.4286"/>
	<rect x="1285.7142" y="2214.2856" width="71.4286" height="71.4286"/>
	<rect x="1428.5714" y="2214.2856" width="71.4286" height="71.4286"/>
	<rect x="1571.4286" y="2214.2856" width="71.4286" height="71.4286"/>
	<rect x="1714.2858" y="2214.2856" width="71.4286" height="71.4286"/>
	<rect x="1928.5714" y="2214.2856" width="71.4286" height="71.4286"/>
	<rect y="2285.7144" width="71.4286" height="71.4286"/>
	<rect x="214.2857" y="2285.7144" width="71.4286" height="71.4286"/>
	<rect x="428.5714" y="2285.7144" width="71.4286" height="71.4286"/>
	<rect x="571.4286" y="2285.7144" width="71.4286" height="71.4286"/>
	<rect x="714.2857" y="2285.7144" width="71.4286" height="71.4286"/>
	<rect x="928.5714" y="2285.7144" width="71.4286" height="71.4286"/>
	<rect x="1071.4286" y="2285.7144" width="71.4286" height="71.4286"/>
	<rect x="1214.2858" y="2285.7144" width="71.4286" height="71.4286"/>
	<rect x="1357.1428" y="2285.7144" width="71.4286" height="71.4286"/>
	<rect x="1500" y="2285.7144" width="71.4286" height="71.4286"/>
	<rect x="1642.8572" y="2285.7144" width="71.4286" height="71.4286"/>
	<rect x="1785.7142" y="2285.7144" width="71.4286" height="71.4286"/>
	<rect x="71.4286" y="2357.1428" width="71.4286" height="71.4286"/>
	<rect x="285.7143" y="2357.1428" width="71.4286" height="71.4286"/>
	<rect x="428.5714" y="2357.1428" width="71.4286" height="71.4286"/>
	<rect x="571.4286" y="2357.1428" width="71.4286" height="71.4286"/>
	<rect x="714.2857" y="2357.1428" width="71.4286" height="71.4286"/>
	<rect x="857.1429" y="2357.1428" width="71.4286" height="71.4286"/>
	<rect x="1000" y="2357.1428" width="71.4286" height="71.4286"/>
	<rect x="1142.8572" y="2357.1428" width="71.4286" height="71.4286"/>
	<rect x="1285.7142" y="2357.1428" width="71.4286" height="71.4286"/>
	<rect x="1428.5714" y="2357.1428" width="71.4286" height="71.4286"/>
	<rect x="1571.4286" y="2357.1428" width="71.4286" height="71.4286"/>
	<rect x="1714.2858" y="2357.1428" width="71.4286" height="71.4286"/>
	<rect x="1857.1428" y="2357.1428" width="71.4286" height="71.4286"/>
	<rect x="142.8571" y="2428.5715" width="71.4286" height="71.4286"/>
	<rect x="285.7143" y="2428.5715" width="71.4286" height="71.4286"/>
	<rect x="428.5714" y="2428.5715" width="71.4286" height="71.4286"/>
	<rect x="571.4286" y="2428.5715" width="71.4286" height="71.4286"/>
	<rect x="785.7143" y="2428.5715" width="71.4286" height="71.4286"/>
	<rect x="928.5714" y="2428.5715" width="71.4286" height="71.4286"/>
	<rect x="1071.4286" y="2428.5715" width="71.4286" height="71.4286"/>
	<rect x="1214.2858" y="2428.5715" width="71.4286" height="71.4286"/>
	<rect x="1357.1428" y="2428.5715" width="71.4286" height="71.4286"/>
	<rect x="1500" y="2428.5715" width="71.4286" height="71.4286"/>
	<rect x="1642.8572" y="2428.5715" width="71.4286" height="71.4286"/>
	<rect x="1785.7142" y="2428.5715" width="71.4286" height="71.4286"/>
	<rect x="1928.5714" y="2428.5715" width="71.4286" height="71.4286"/>
	<rect y="2500" width="71.4286" height="71.4286"/>
	<rect x="142.8571" y="2500" width="71.4286" height="71.4286"/>
	<rect x="214.2857" y="2500" width="71.4286" height="71.4286"/>
	<rect x="357.1429" y="2500" width="71.4286" height="71.4286"/>
	<rect x="500" y="2500" width="71.4286" height="71.4286"/>
	<rect x="642.8571" y="2500" width="71.4286" height="71.4286"/>
	<rect x="785.7143" y="2500" width="71.4286" height="71.4286"/>
	<rect x="928.5714" y="2500" width="71.4286" height="71.4286"/>
	<rect x="1071.4286" y="2500" width="71.4286" height="71.4286"/>
	<rect x="1214.2858" y="2500" width="71.4286" height="71.4286"/>
	<rect x="1285.7142" y="2500" width="71.4286" height="71.4286"/>
	<rect x="1428.5714" y="2500" width="71.4286" height="71.4286"/>
	<rect x="1571.4286" y="2500" width="71.4286" height="71.4286"/>
	<rect x="1714.2858" y="2500" width="71.4286" height="71.4286"/>
	<rect x="1857.1428" y="2500" width="71.4286" height="71.4286"/>
	<rect y="2571.4285" width="71.4286" height="71.4286"/>
	<rect x="71.4286" y="2571.4285" width="71.4286" height="71.4286"/>
	<rect x="214.2857" y="2571.4285" width="71.4286" height="71.4286"/>
	<rect x="357.1429" y="2571.4285" width="71.4286" height="71.4286"/>
	<rect x="571.4286" y="2571.4285" width="71.4286" height="71.4286"/>
	<rect x="714.2857" y="2571.4285" width="71.4286" height="71.4286"/>
	<rect x="857.1429" y="2571.4285" width="71.4286" height="71.4286"/>
	<rect x="1000" y="2571.4285" width="71.4286" height="71.4286"/>
	<rect x="1142.8572" y="2571.4285" width="71.4286" height="71.4286"/>
	<rect x="1285.7142" y="2571.4285" width="71.4286" height="71.4286"/>
	<rect x="1357.1428" y="2571.4285" width="71.4286" height="71.4286"/>
	<rect x="1500" y="2571.4285" width="71.4286" height="71.4286"/>
	<rect x="1642.8572" y="2571.4285" width="71.4286" height="71.4286"/>
	<rect x="1785.7142" y="2571.4285" width="71.4286" height="71.4286"/>
	<rect x="1928.5714" y="2571.4285" width="71.4286" height="71.4286"/>
	<rect y="2642.8572" width="71.4286" height="71.4286"/>
	<rect x="71.4286" y="2642.8572" width="71.4286" height="71.4286"/>
	<rect x="214.2857" y="2642.8572" width="71.4286" height="71.4286"/>
	<rect x="428.5714" y="2642.8572" width="71.4286" height="71.4286"/>
	<rect x="642.8571" y="2642.8572" width="71.4286" height="71.4286"/>
	<rect x="785.7143" y="2642.8572" width="71.4286" height="71.4286"/>
	<rect x="928.5714" y="2642.8572" width="71.4286" height="71.4286"/>
	<rect x="1071.4286" y="2642.8572" width="71.4286" height="71.4286"/>
	<rect x="1214.2858" y="2642.8572" width="71.4286" height="71.4286"/>
	<rect x="1428.5714" y="2642.8572" width="71.4286" height="71.4286"/>
	<rect x="1571.4286" y="2642.8572" width="71.4286" height="71.4286"/>
	<rect x="1714.2858" y="2642.8572" width="71.4286" height="71.4286"/>
	<rect x="1857.1428" y="2642.8572" width="71.4286" height="71.4286"/>
	<rect y="2714.2856" width="71.4286" height="71.4286"/>
	<rect x="142.8571" y="2714.2856" width="71.4286" height="71.4286"/>
	<rect x="285.7143" y="2714.2856" width="71.4286" height="71.4286"/>
	<rect x="500" y="2714.2856" width="71.4286" height="71.4286"/>
	<rect x="714.2857" y="2714.2856" width="71.4286" height="71.4286"/>
	<rect x="857.1429" y="2714.2856" width="71.4286" height="71.4286"/>
	<rect x="1000" y="2714.2856" width="71.4286" height="71.4286"/>
	<rect x="1142.8572" y="2714.2856" width="71.4286" height="71.4286"/>
	<rect x="1285.7142" y="2714.2856" width="71.4286" height="71.4286"/>
	<rect x="1500" y="2714.2856" width="71.4286" height="71.4286"/>
	<rect x="1642.8572" y="2714.2856" width="71.4286" height="71.4286"/>
	<rect x="1785.7142" y="2714.2856" width="71.4286" height="71.4286"/>
	<rect x="1928.5714" y="2714.2856" width="71.4286" height="71.4286"/>
	<rect x="71.4286" y="2785.7144" width="71.4286" height="71.4286"/>
	<rect x="214.2857" y="2785.7144" width="71.4286" height="71.4286"/>
	<rect x="357.1429" y="2785.7144" width="71.4286" height="71.4286"/>
	<rect x="571.4286" y="2785.7144" width="71.4286" height="71.4286"/>
	<rect x="714.2857" y="2785.7144" width="71.4286" height="71.4286"/>
	<rect x="785.7143" y="2785.7144" width="71.4286" height="71.4286"/>
	<rect x="857.1429" y="2785.7144" width="71.4286" height="71.4286"/>
	<rect x="928.5714" y="2785.7144" width="71.4286" height="71.4286"/>
	<rect x="1071.4286" y="2785.7144" width="71.4286" height="71.4286"/>
	<rect x="1214.2858" y="2785.7144" width="71.4286" height="71.4286"/>
	<rect x="1357.1428" y="2785.7144" width="71.4286" height="71.4286"/>
	<rect x="1571.4286" y="2785.7144" width="71.4286" height="71.4286"/>
	<rect x="1714.2858" y="2785.7144" width="71.4286" height="71.4286"/>
	<rect x="1857.1428" y="2785.7144" width="71.4286" height="71.4286"/>
	<rect x="71.4286" y="2857.1428" width="71.4286" height="71.4286"/>
	<rect x="214.2857" y="2857.1428" width="71.4286" height="71.4286"/>
	<rect x="357.1429" y="2857.1428" width="71.4286" height="71.4286"/>
	<rect x="428.5714" y="2857.1428" width="71.4286" height="71.4286"/>
	<rect x="571.4286" y="2857.1428" width="71.4286" height="71.4286"/>
	<rect x="714.2857" y="2857.1428" width="71.4286" height="71.4286"/>
	<rect x="857.1429" y="2857.1428" width="71.4286" height="71.4286"/>
	<rect x="1000" y="2857.1428" width="71.4286" height="71.4286"/>
	<rect x="1142.8572" y="2857.1428" width="71.4286" height="71.4286"/>
	<rect x="1285.7142" y="2857.1428" width="71.4286" height="71.4286"/>
	<rect x="1428.5714" y="2857.1428" width="71.4286" height="71.4286"/>
	<rect x="1642.8572" y="2857.1428" width="71.4286" height="71.4286"/>
	<rect x="1785.7142" y="2857.1428" width="71.4286" height="71.4286"/>
	<rect x="1928.5714" y="2857.1428" width="71.4286" height="71.4286"/>
	<rect y="2928.5715" width="71.4286" height="71.4286"/>
	<rect x="142.8571" y="2928.5715" width="71.4286" height="71.4286"/>
	<rect x="285.7143" y="2928.5715" width="71.4286" height="71.4286"/>
	<rect x="428.5714" y="2928.5715" width="71.4286" height="71.4286"/>
	<rect x="500" y="2928.5715" width="71.4286" height="71.4286"/>
	<rect x="642.8571" y="2928.5715" width="71.4286" height="71.4286"/>
	<rect x="714.2857" y="2928.5715" width="71.4286" height="71.4286"/>
	<rect x="857.1429" y="2928.5715" width="71.4286" height="71.4286"/>
	<rect x="1071.4286" y="2928.5715" width="71.4286" height="71.4286"/>
	<rect x="1214.2858" y="2928.5715" width="71.4286" height="71.4286"/>
	<rect x="1357.1428" y="2928.5715" width="71.4286" height="71.4286"/>
	<rect x="1500" y="2928.5715" width="71.4286" height="71.4286"/>
	<rect x="1642.8572" y="2928.5715" width="71.4286" height="71.4286"/>
	<rect x="1857.1428" y="2928.5715" width="71.4286" height="71.4286"/>
</g>
</svg>
